<svg xmlns="http://www.w3.org/2000/svg" xmlns:xlink="http://www.w3.org/1999/xlink" width="82" height="18" viewBox="0 0 82 18">
    <defs>
        <path id="a" d="M14.16.06H.071v17.859h14.087V.06z"/>
    </defs>
    <g fill="none" fill-rule="evenodd">
        <g transform="translate(11.644 .021)">
            <mask id="b" fill="#fff">
                <use xlink:href="#a"/>
            </mask>
            <path fill="#D2C54A" d="M1.12 13.777c.42.479 3.715 2.545 4.373 2.669.44-.114 2.483-1.301 4.317-2.45.222-2.099.364-4.496.231-5.012-.39-.297-2.402-1.482-4.296-2.557C3.732 7.38 1.574 8.489 1.23 8.8c-.237.613-.321 4.37-.11 4.976zm12.575 4.142c-.11 0-.154 0-.319-.137l-.004.005a39.458 39.458 0 0 0-.114-.107c-.101-.09-.234-.213-.418-.382l-1.185-1.095-1.462-1.352c-.394.246-1.123.695-1.877 1.14-2.345 1.387-2.638 1.387-2.814 1.387H5.49c-.395-.006-1.327-.461-2.769-1.352-.637-.394-2.147-1.355-2.398-1.767-.248-.408-.269-1.857-.243-3 .026-1.145.113-2.593.38-2.985.101-.147.268-.39 2.755-1.643.845-.426 1.678-.826 2.088-1.022a4074.633 4074.633 0 0 1 .05-4.86l.004-.174c.01-.5.419-.515.466-.515.185 0 .461.13.465.487.016 1.532-.035 4.222-.053 5.09 4.372 2.48 4.52 2.715 4.59 2.83.107.168.306.483.113 3.27-.067.977-.16 1.923-.204 2.349.605.555 2.627 2.414 3.27 3.02.176.167.18.378.123.52l-.432.293z" mask="url(#b)"/>
        </g>
        <path fill="#D2C54A" d="M13.633 9.764a.464.464 0 0 1-.214-.877l3.601-1.872a.464.464 0 1 1 .428.824l-3.601 1.872a.462.462 0 0 1-.214.053"/>
        <path fill="#221E1F" d="M9.06 14.463c-.586.365-1.23.55-1.936.55H3.13c-.76 0-1.446-.194-2.06-.577C.356 13.987 0 13.406 0 12.691V9.245c0-.694.352-1.27 1.057-1.73a3.764 3.764 0 0 1 2.073-.59h3.994c.705 0 1.345.179 1.922.536.677.43 1.072 1.02 1.18 1.77h-1.18c-.118-.412-.406-.723-.865-.932a2.51 2.51 0 0 0-1.057-.22H3.13c-.422 0-.824.081-1.207.246-.515.22-.77.522-.77.906v3.473c0 .378.252.675.754.893.413.185.815.276 1.21.276h4.007a2.37 2.37 0 0 0 1.044-.22c.467-.21.76-.527.878-.95h1.18c-.108.752-.497 1.338-1.166 1.76M33.676 9.231c0-.384-.255-.687-.768-.906a3.128 3.128 0 0 0-1.195-.246h-3.994c-.43 0-.837.081-1.222.246-.505.228-.755.532-.755.906v3.46c0 .386.25.688.755.906.41.185.818.276 1.222.276h3.982c.392 0 .795-.09 1.207-.276.513-.218.768-.515.768-.893V9.23zm.096 5.19c-.612.393-1.3.592-2.06.592H27.72c-.77 0-1.46-.2-2.074-.591-.704-.458-1.056-1.034-1.056-1.73v-3.46c0-.724.367-1.304 1.097-1.745a3.864 3.864 0 0 1 2.033-.562h3.982c.3 0 .58.032.836.097.283.054.663.178 1.14.371v-3.86h1.152v9.158c0 .697-.351 1.273-1.057 1.73zM45.413 9.28c0-.328-.196-.605-.59-.824-.393-.23-.855-.342-1.385-.342h-3.983c-.42 0-.824.082-1.206.247-.516.212-.771.512-.771.905 0 .376.252.674.756.893a2.98 2.98 0 0 0 1.221.274h3.995c.513 0 .97-.108 1.373-.33.394-.22.59-.493.59-.823m1.153-.028c0 .696-.35 1.273-1.057 1.731a3.721 3.721 0 0 1-2.059.592h-3.995a3.72 3.72 0 0 1-.837-.099 6.228 6.228 0 0 1-.508-.143 12.903 12.903 0 0 1-.632-.226v1.591c.046.349.317.647.812.894.393.202.78.302 1.165.302h3.995c.386 0 .736-.074 1.056-.22.469-.21.761-.527.88-.948h1.166c-.11.743-.503 1.328-1.18 1.76a3.487 3.487 0 0 1-1.922.549h-3.995a3.821 3.821 0 0 1-2.018-.566c-.74-.446-1.11-1.033-1.11-1.756V9.266c0-.714.338-1.285 1.015-1.716.603-.385 1.309-.575 2.113-.575h3.995c.797 0 1.493.183 2.087.55.686.43 1.03 1.005 1.03 1.727M60.606 12.555c-.12.74-.466 1.335-1.043 1.784-.568.44-1.254.66-2.06.66h-5.232c-.86 0-1.597-.239-2.21-.716-.615-.474-.92-1.056-.92-1.742V3.56h1.168v8.98c0 .358.186.67.562.935.366.257.832.384 1.4.384h5.233c.475 0 .888-.105 1.234-.314.376-.239.618-.57.729-.99h1.14zM69.943 12.742c0-.377-.251-.674-.756-.894a3.02 3.02 0 0 0-1.208-.273h-3.996c-.529 0-.99.108-1.385.329-.394.22-.59.493-.59.823 0 .33.192.604.577.823.392.23.855.344 1.386.344h4.008c.413 0 .81-.082 1.195-.246.514-.22.769-.523.769-.906zm1.152-.015c0 .713-.338 1.292-1.015 1.73-.604.383-1.305.578-2.1.578h-3.997c-.804 0-1.503-.188-2.098-.564-.687-.421-1.03-.996-1.03-1.73 0-.703.352-1.276 1.057-1.716a3.741 3.741 0 0 1 2.071-.591h3.996c.138 0 .273.009.406.019.131.016.274.042.425.077.152.038.318.086.5.144.184.06.394.134.633.227V9.308c-.047-.356-.313-.654-.796-.893a2.56 2.56 0 0 0-1.168-.301h-3.996c-.41 0-.767.074-1.068.22-.458.202-.752.518-.88.946h-1.166c.11-.748.498-1.335 1.166-1.756.559-.366 1.204-.55 1.936-.55h4.008c.733 0 1.405.184 2.018.55.732.439 1.098 1.024 1.098 1.756v3.447zM80.812 9.253c0-.375-.253-.671-.755-.892a2.902 2.902 0 0 0-1.21-.26h-3.993c-.422 0-.824.08-1.208.247-.513.219-.768.522-.768.905v3.474c0 .376.25.673.753.893a2.96 2.96 0 0 0 1.21.274h4.007c.423 0 .82-.088 1.195-.26.512-.218.769-.527.769-.921v-3.46zm.096 5.191c-.596.393-1.281.59-2.06.59h-3.994c-.76 0-1.446-.194-2.06-.577-.713-.446-1.07-1.029-1.07-1.744V3.554h1.154v3.873c.467-.191.845-.32 1.133-.383a3.75 3.75 0 0 1 .843-.097h3.994c.733 0 1.406.183 2.018.549.733.459 1.1 1.043 1.1 1.757v3.46c0 .696-.354 1.272-1.058 1.731z"/>
    </g>
</svg>
